<svg width="1749" height="1380" viewBox="0 0 1749 1380" fill="none" xmlns="http://www.w3.org/2000/svg">
<path d="M1271.61 205.204L176.556 0.308954C174.326 -0.128751 172.033 -0.10111 169.815 0.390201C167.802 0.840287 165.913 1.74142 164.284 3.02845C162.691 4.29722 161.409 5.92738 160.541 7.78974C159.616 9.80116 159.146 11.9989 159.165 14.2208V1016.13C159.145 1018.35 159.613 1020.55 160.536 1022.56C161.404 1024.42 162.684 1026.05 164.275 1027.32C165.904 1028.61 167.792 1029.51 169.804 1029.97C172.022 1030.46 174.315 1030.49 176.545 1030.05L1271.61 825.154C1272.52 824.963 1273.36 824.528 1274.04 823.892C1274.85 823.161 1275.52 822.293 1276.03 821.327C1276.62 820.225 1277.07 819.048 1277.36 817.827C1277.68 816.498 1277.85 815.134 1277.85 813.765V216.627C1277.85 215.255 1277.69 213.887 1277.36 212.555C1277.07 211.333 1276.62 210.155 1276.03 209.053C1275.52 208.087 1274.85 207.219 1274.05 206.487C1273.36 205.851 1272.52 205.415 1271.61 205.223L1271.61 205.204Z" fill="#6C63FF"/>
<path d="M1288.36 205.204L193.303 0.308954C191.074 -0.128751 188.781 -0.10111 186.562 0.390201C184.55 0.840287 182.661 1.74142 181.031 3.02845C179.439 4.29722 178.157 5.92738 177.288 7.78974C176.364 9.80116 175.894 11.9989 175.913 14.2208V1016.13C175.893 1018.35 176.361 1020.55 177.284 1022.56C178.151 1024.42 179.432 1026.05 181.023 1027.32C182.651 1028.61 184.54 1029.51 186.552 1029.97C188.77 1030.46 191.063 1030.49 193.293 1030.05L1288.36 825.154C1289.26 824.963 1290.11 824.528 1290.79 823.892C1291.59 823.161 1292.26 822.293 1292.77 821.327C1293.37 820.225 1293.82 819.048 1294.11 817.827C1294.43 816.498 1294.6 815.134 1294.6 813.765V216.627C1294.6 215.255 1294.43 213.887 1294.11 212.555C1293.82 211.333 1293.37 210.155 1292.78 209.053C1292.27 208.087 1291.6 207.219 1290.79 206.487C1290.11 205.851 1289.27 205.415 1288.36 205.223L1288.36 205.204Z" fill="#8D5DC6"/>
<path d="M1288.36 205.204L193.303 0.308954C191.074 -0.128751 188.781 -0.10111 186.562 0.390201C184.55 0.840287 182.661 1.74142 181.031 3.02845C179.439 4.29722 178.157 5.92738 177.288 7.78974C176.364 9.80116 175.894 11.9989 175.913 14.2208V1016.13C175.893 1018.35 176.361 1020.55 177.284 1022.56C178.151 1024.42 179.432 1026.05 181.023 1027.32C182.651 1028.61 184.54 1029.51 186.552 1029.97C188.77 1030.46 191.063 1030.49 193.293 1030.05L1288.36 825.154C1289.26 824.963 1290.11 824.528 1290.79 823.892C1291.59 823.161 1292.26 822.293 1292.77 821.327C1293.37 820.225 1293.82 819.048 1294.11 817.827C1294.43 816.498 1294.6 815.134 1294.6 813.765V216.627C1294.6 215.255 1294.43 213.887 1294.11 212.555C1293.82 211.333 1293.37 210.155 1292.78 209.053C1292.27 208.087 1291.6 207.219 1290.79 206.487C1290.11 205.851 1289.27 205.415 1288.36 205.223L1288.36 205.204ZM1292.52 814.126C1292.52 815.043 1292.41 815.956 1292.2 816.846C1292 817.661 1291.7 818.447 1291.31 819.182C1290.97 819.827 1290.52 820.405 1289.98 820.893C1289.53 821.315 1288.97 821.605 1288.36 821.731L193.314 1024.35C191.828 1024.64 190.3 1024.62 188.823 1024.29C187.484 1023.99 186.228 1023.38 185.145 1022.53C184.086 1021.68 183.235 1020.59 182.658 1019.35C182.045 1018.01 181.733 1016.55 181.745 1015.08V15.2855C181.733 13.8086 182.044 12.3476 182.656 11.0095C183.232 9.76805 184.082 8.68039 185.141 7.83251C186.223 6.9732 187.479 6.37002 188.817 6.06653C190.294 5.73503 191.822 5.71247 193.307 6.00024L1288.36 208.629C1288.97 208.755 1289.53 209.045 1289.98 209.467C1290.52 209.955 1290.97 210.534 1291.31 211.178C1291.7 211.913 1292 212.698 1292.2 213.512C1292.42 214.402 1292.53 215.315 1292.53 216.232V814.124L1292.52 814.126Z" fill="#FFB6B6"/>
<path d="M0.00144857 312.719C-0.0512303 305.884 1.36441 299.12 4.1486 292.904C6.75068 287.162 10.5961 282.099 15.3947 278.096C20.2249 274.095 25.864 271.238 31.9058 269.731C38.4423 268.12 45.2348 267.911 51.8544 269.117C58.7974 270.352 65.4596 272.877 71.5099 276.568C77.4871 280.2 82.8377 284.813 87.3469 290.221C91.8183 295.552 95.3909 301.605 97.9189 308.133C100.438 314.61 101.746 321.513 101.775 328.482C101.822 335.073 100.508 341.601 97.9189 347.639C95.4872 353.249 91.8782 358.246 87.3469 362.275C82.754 366.333 77.3493 369.319 71.5099 371.024C65.1216 372.866 58.4279 373.33 51.8544 372.388V372.388C44.8521 371.403 38.0907 369.094 31.9163 365.58C25.7127 362.065 20.1331 357.508 15.4114 352.1C10.6697 346.704 6.86564 340.519 4.16323 333.814C1.45353 327.123 0.0401865 319.959 0.00144857 312.719V312.719Z" fill="#2F2E41"/>
<path d="M0.00144857 520.103C-0.0512303 513.268 1.36441 506.504 4.1486 500.288C6.75068 494.546 10.5961 489.483 15.3947 485.48C20.2249 481.479 25.864 478.622 31.9058 477.114C38.4423 475.504 45.2348 475.295 51.8544 476.501C58.7974 477.736 65.4596 480.261 71.5099 483.952C77.4871 487.584 82.8377 492.197 87.3469 497.605C91.8183 502.936 95.3909 508.989 97.9189 515.517C100.438 521.994 101.746 528.896 101.775 535.866C101.822 542.457 100.508 548.985 97.9189 555.022C95.4872 560.633 91.8782 565.63 87.3469 569.659C82.754 573.717 77.3493 576.703 71.5099 578.408C65.1216 580.249 58.4279 580.714 51.8544 579.772V579.772C44.8521 578.787 38.0907 576.478 31.9163 572.964C25.7127 569.449 20.1331 564.892 15.4114 559.484C10.6697 554.088 6.86564 547.903 4.16323 541.198C1.45353 534.507 0.0401865 527.343 0.00144857 520.103Z" fill="#2F2E41"/>
<path d="M0.00144857 727.487C-0.0512303 720.652 1.36441 713.888 4.1486 707.672C6.75068 701.93 10.5961 696.867 15.3947 692.864C20.2249 688.863 25.864 686.006 31.9058 684.498C38.4423 682.888 45.2348 682.679 51.8544 683.885C58.7974 685.119 65.4596 687.645 71.5099 691.336C77.4871 694.968 82.8377 699.581 87.3469 704.989C91.8183 710.32 95.3909 716.373 97.9189 722.901C100.438 729.378 101.746 736.28 101.775 743.25C101.822 749.841 100.508 756.369 97.9189 762.406C95.4872 768.017 91.8782 773.014 87.3469 777.043C82.754 781.101 77.3493 784.087 71.5099 785.791C65.1216 787.633 58.4279 788.098 51.8544 787.156V787.156C44.8521 786.17 38.0907 783.862 31.9163 780.348C25.7127 776.833 20.1331 772.276 15.4114 766.868C10.6697 761.472 6.86564 755.287 4.16323 748.582C1.45353 741.891 0.0401865 734.727 0.00144857 727.487Z" fill="#2F2E41"/>
<path d="M12.5622 312.719C12.5095 305.884 13.9252 299.12 16.7094 292.904C19.3114 287.162 23.1569 282.099 27.9554 278.096C32.7857 274.095 38.4248 271.238 44.4665 269.731C51.0031 268.12 57.7956 267.911 64.4151 269.117C71.3581 270.352 78.0203 272.877 84.0707 276.568C90.0479 280.2 95.3985 284.813 99.9077 290.221C104.379 295.552 107.952 301.605 110.48 308.133C112.999 314.61 114.307 321.513 114.336 328.482C114.383 335.073 113.069 341.601 110.48 347.639C108.048 353.249 104.439 358.246 99.9077 362.275C95.3148 366.333 89.9101 369.319 84.0707 371.024C77.6824 372.866 70.9887 373.33 64.4151 372.388V372.388C57.4129 371.403 50.6515 369.094 44.477 365.58C38.2735 362.065 32.6938 357.508 27.9722 352.1C23.2305 346.704 19.4264 340.519 16.724 333.814C14.0143 327.123 12.6009 319.959 12.5622 312.719V312.719Z" fill="#6C63FF"/>
<path d="M12.5622 518.69C12.5301 511.753 13.9438 504.889 16.7093 498.554C19.3355 492.586 23.168 487.252 27.9554 482.904C32.7439 478.559 38.3674 475.282 44.4665 473.283C50.9041 471.191 57.6937 470.47 64.4151 471.164C71.2804 471.851 77.9528 473.877 84.0706 477.132C90.0282 480.297 95.3899 484.515 99.9077 489.59C104.395 494.607 107.974 500.398 110.48 506.693C113.017 513.072 114.326 519.891 114.334 526.775C114.363 533.461 113.05 540.083 110.478 546.231C108.011 552.082 104.394 557.353 99.8514 561.718C95.3087 566.084 89.9369 569.45 84.0685 571.609C77.7756 573.918 71.0864 574.886 64.413 574.454V574.454C57.4938 574.02 50.7228 572.22 44.4749 569.152C32.0016 563.028 22.1379 552.475 16.7261 539.466C13.9986 532.893 12.583 525.829 12.5622 518.69V518.69Z" fill="#6C63FF"/>
<path d="M12.5622 724.66C12.5536 717.76 13.913 710.929 16.5585 704.579C19.204 698.229 23.0809 692.493 27.9554 687.714C33.9496 681.853 41.251 677.57 49.2287 675.236C57.2065 672.902 65.6208 672.587 73.7446 674.318C81.8683 676.049 89.4573 679.774 95.8557 685.171C102.254 690.568 107.27 697.474 110.469 705.294C113.614 713.077 114.844 721.527 114.053 729.907C113.261 738.287 110.472 746.342 105.928 753.367C101.384 760.391 95.225 766.173 87.9884 770.205C80.7518 774.237 72.6582 776.398 64.4151 776.498C54.3235 776.649 44.4133 773.751 35.9287 768.169C27.4442 762.587 20.7637 754.569 16.7261 745.123C13.9799 738.665 12.5626 731.7 12.5622 724.66V724.66Z" fill="#6C63FF"/>
<path d="M44.1923 312.484L59.395 314.87V299.562C59.3878 298.899 59.5206 298.243 59.7844 297.638C60.0312 297.078 60.3982 296.583 60.8583 296.188C61.323 295.792 61.8679 295.507 62.4536 295.352C63.0918 295.186 63.7569 295.156 64.4068 295.267C65.0952 295.38 65.7573 295.622 66.36 295.981C66.9608 296.337 67.4998 296.792 67.9552 297.328C68.4097 297.859 68.7741 298.463 69.0333 299.117C69.2918 299.766 69.4275 300.459 69.4332 301.159V316.445L84.347 318.782C85.0245 318.891 85.6762 319.129 86.2688 319.481C87.457 320.186 88.3809 321.275 88.894 322.577C89.1469 323.221 89.2784 323.908 89.2813 324.602C89.2861 325.258 89.154 325.907 88.894 326.507C88.6535 327.06 88.2961 327.552 87.8472 327.948C87.3916 328.343 86.8562 328.63 86.2792 328.79C85.6527 328.961 84.998 328.996 84.3574 328.893L69.4227 326.611V341.864C69.4276 342.527 69.2934 343.183 69.0291 343.788C68.7818 344.35 68.4158 344.848 67.9573 345.248C67.4942 345.648 66.9512 345.94 66.3663 346.103C65.7307 346.279 65.0663 346.319 64.4151 346.219C63.7275 346.117 63.0644 345.885 62.4598 345.535C61.8585 345.187 61.3185 344.739 60.8625 344.209C60.4071 343.683 60.0425 343.081 59.7844 342.43C59.5278 341.78 59.3956 341.085 59.395 340.384V325.076L44.1923 322.746C43.4938 322.636 42.8211 322.397 42.2077 322.038C41.5973 321.684 41.049 321.228 40.5853 320.689C40.1243 320.159 39.7541 319.553 39.4904 318.898C39.2275 318.241 39.091 317.539 39.0884 316.83C39.0834 316.162 39.2205 315.5 39.4904 314.891C39.7435 314.326 40.1177 313.826 40.5853 313.429C41.0581 313.025 41.612 312.734 42.2077 312.574C42.8561 312.405 43.5317 312.374 44.1923 312.484V312.484Z" fill="#FFB6B6"/>
<path d="M54.8627 536.488L97.0794 539.614H97.2343L77.4365 502.905C77.3136 502.674 77.1376 502.478 76.9236 502.332C76.8186 502.26 76.7054 502.202 76.5865 502.159C76.467 502.115 76.3425 502.087 76.216 502.075C76.093 502.064 75.969 502.07 75.8475 502.092C75.7305 502.115 75.6171 502.154 75.5105 502.208C75.2972 502.316 75.1191 502.484 74.9976 502.693L61.5261 525.309L60.8772 526.397L54.8627 536.488Z" fill="#FFB6B6"/>
<path d="M30.769 534.703L68.0159 537.461L60.8772 526.395L60.3622 525.595L51.0002 511.081C50.8344 510.855 50.6276 510.665 50.391 510.52C50.2761 510.45 50.1548 510.392 50.0289 510.345C49.8986 510.298 49.7639 510.264 49.6269 510.245C49.4945 510.225 49.3605 510.22 49.2271 510.23C49.0973 510.238 48.9689 510.261 48.844 510.298C48.721 510.334 48.6024 510.385 48.4902 510.448C48.3774 510.511 48.272 510.587 48.1761 510.674L48.1447 510.713L48.105 510.751L48.0736 510.792L48.0422 510.833L30.769 534.703Z" fill="#FFB6B6"/>
<path d="M58.9365 496.863C59.7953 496.939 60.6318 497.183 61.4005 497.581C62.1542 497.973 62.834 498.497 63.4082 499.131C63.9812 499.762 64.4392 500.491 64.7605 501.286C65.0863 502.09 65.2549 502.952 65.2567 503.822C65.2604 504.665 65.0914 505.5 64.7605 506.272C64.4464 507.003 63.9857 507.659 63.4082 508.196C62.8277 508.735 62.1441 509.145 61.4005 509.4C60.6077 509.67 59.7691 509.771 58.9365 509.697C58.0767 509.624 57.2388 509.382 56.4683 508.985C55.711 508.596 55.0277 508.072 54.4503 507.437C53.8731 506.807 53.4115 506.075 53.0874 505.278C52.7586 504.47 52.5886 503.604 52.5871 502.73C52.5835 501.883 52.7539 501.046 53.0874 500.271C53.4046 499.539 53.869 498.883 54.4503 498.347C55.0348 497.811 55.722 497.404 56.4683 497.154C57.263 496.885 58.103 496.786 58.9365 496.863V496.863Z" fill="#FFB6B6"/>
<path d="M508.488 698.66C507.408 698.781 506.378 699.189 505.501 699.845C504.533 700.57 503.71 701.478 503.077 702.519C502.357 703.682 501.812 704.949 501.461 706.278C501.072 707.728 500.884 709.226 500.902 710.729C500.91 712.169 501.122 713.599 501.53 714.977C501.885 716.189 502.437 717.331 503.163 718.355C503.795 719.256 504.615 720.003 505.564 720.542C506.46 721.043 507.475 721.277 508.495 721.216L1219.86 661.06C1220.43 661.011 1220.96 660.763 1221.36 660.356C1221.88 659.851 1222.3 659.25 1222.6 658.586C1222.98 657.768 1223.26 656.907 1223.44 656.02C1223.65 654.995 1223.76 653.951 1223.76 652.903C1223.78 651.867 1223.68 650.831 1223.49 649.814C1223.32 648.949 1223.05 648.109 1222.68 647.315C1222.4 646.68 1221.99 646.113 1221.48 645.649C1221.07 645.276 1220.54 645.074 1219.99 645.085H1219.86L508.488 698.66Z" fill="#9FFFFF"/>
<path d="M508.488 767.118C507.402 767.271 506.373 767.708 505.501 768.386C504.534 769.136 503.712 770.062 503.077 771.119C502.358 772.298 501.813 773.58 501.461 774.922C501.072 776.381 500.884 777.889 500.902 779.401C500.909 780.835 501.121 782.26 501.53 783.632C501.883 784.831 502.435 785.958 503.163 786.965C503.794 787.848 504.614 788.572 505.56 789.084C506.462 789.562 507.478 789.767 508.491 789.676L1219.86 709.532C1220.43 709.466 1220.96 709.202 1221.36 708.786C1221.88 708.266 1222.3 707.654 1222.6 706.979C1222.98 706.15 1223.26 705.277 1223.44 704.379C1223.65 703.351 1223.76 702.303 1223.76 701.252C1223.78 700.217 1223.68 699.184 1223.49 698.169C1223.33 697.311 1223.06 696.479 1222.68 695.693C1222.4 695.069 1221.99 694.515 1221.48 694.068C1221.06 693.705 1220.53 693.517 1219.98 693.544H1219.85L508.488 767.118Z" fill="#9FFFFF"/>
<path d="M508.488 834.469C507.397 834.655 506.369 835.12 505.501 835.82C504.534 836.597 503.713 837.546 503.077 838.621C502.359 839.818 501.815 841.114 501.461 842.469C501.073 843.933 500.885 845.445 500.902 846.961C500.909 848.389 501.12 849.808 501.53 851.173C501.881 852.358 502.434 853.471 503.163 854.461C503.795 855.327 504.615 856.029 505.56 856.514C506.468 856.968 507.486 857.145 508.491 857.025L1219.86 757.217C1220.43 757.134 1220.96 756.857 1221.36 756.431C1221.88 755.897 1222.3 755.274 1222.6 754.59C1222.98 753.752 1223.26 752.871 1223.44 751.967C1223.65 750.935 1223.76 749.884 1223.76 748.83C1223.78 747.798 1223.68 746.768 1223.49 745.756C1223.33 744.905 1223.06 744.08 1222.68 743.301C1222.4 742.687 1221.99 742.144 1221.48 741.711C1221.06 741.358 1220.52 741.185 1219.98 741.228H1219.85L508.488 834.469Z" fill="#9FFFFF"/>
<path d="M84.7091 702.968L44.1002 702.472C43.4231 702.448 42.747 702.546 42.103 702.761C41.4805 702.969 40.8977 703.285 40.3801 703.695C39.8644 704.104 39.4223 704.601 39.0738 705.164C38.7167 705.742 38.4649 706.382 38.3306 707.052C38.1967 707.852 38.2374 708.673 38.4499 709.455C38.556 709.846 38.7035 710.224 38.8896 710.582C39.269 711.312 39.7998 711.949 40.445 712.448C41.4126 713.197 42.591 713.607 43.805 713.618L56.0183 713.731C56.5942 713.735 57.1565 713.91 57.6362 714.236C58.116 714.561 58.4922 715.023 58.7188 715.563C58.8712 715.929 58.9495 716.322 58.9491 716.72V741.187C58.9189 742.538 59.3596 743.855 60.1926 744.905C61.0262 745.958 62.1967 746.677 63.4982 746.936C64.6778 747.138 65.8897 746.94 66.9483 746.371C68.007 745.803 68.8541 744.896 69.3599 743.789C69.6929 743.06 69.8659 742.265 69.8665 741.461V716.788C69.8668 716.403 69.9412 716.022 70.0857 715.667C70.2302 715.311 70.4418 714.988 70.7085 714.716C70.9752 714.444 71.2918 714.229 71.6401 714.081C71.9884 713.934 72.3617 713.859 72.7386 713.859L72.7659 713.859L84.4328 713.953C85.7353 713.996 87.0105 713.566 88.0314 712.739C89.0523 711.911 89.7526 710.741 90.0077 709.436C90.1357 708.646 90.0951 707.837 89.8887 707.065C89.6823 706.292 89.315 705.574 88.8119 704.96C88.3088 704.346 87.6817 703.85 86.9736 703.506C86.2655 703.163 85.4931 702.979 84.7091 702.968V702.968Z" fill="#FFB6B6"/>
<path d="M84.7112 735.932C85.8692 735.931 86.9964 736.312 87.926 737.017C88.8557 737.722 89.5383 738.714 89.8727 739.846C90.2072 740.978 90.1758 742.19 89.7831 743.303C89.3904 744.415 88.6573 745.369 87.6924 746.023C86.7275 746.676 85.5821 746.996 84.4258 746.933C83.2695 746.87 82.1639 746.428 81.2725 745.673C80.3812 744.918 79.7515 743.89 79.4769 742.742C79.2022 741.593 79.2972 740.384 79.7476 739.295C80.158 738.297 80.8482 737.445 81.7314 736.847C82.6146 736.248 83.6514 735.93 84.7112 735.932V735.932Z" fill="#FFB6B6"/>
<path d="M1036.5 411.69C1036.31 413.182 1036.01 414.657 1035.59 416.101L1120.24 519.613L1151.86 514.049L1166.32 561.68L1111.28 577.084C1106.84 578.328 1102.12 578.066 1097.83 576.337C1093.54 574.608 1089.92 571.505 1087.5 567.494L1008.83 436.781C1003.15 436.797 997.608 435.048 992.929 431.766C988.25 428.485 984.66 423.826 982.636 418.41C980.613 412.994 980.252 407.077 981.602 401.447C982.951 395.816 985.948 390.739 990.192 386.89C994.436 383.041 999.727 380.602 1005.36 379.899C1011 379.196 1016.71 380.262 1021.73 382.954C1026.76 385.646 1030.87 389.838 1033.5 394.971C1036.14 400.104 1037.18 405.935 1036.5 411.69V411.69Z" fill="#FFB6B6"/>
<path d="M1123.99 518.118C1124.89 516.621 1126.1 515.342 1127.54 514.367C1128.97 513.391 1130.59 512.743 1132.29 512.467L1191.68 502.794C1200.08 500.087 1209.19 500.892 1217.02 505.034C1224.84 509.176 1230.73 516.316 1233.4 524.889C1236.08 533.462 1235.31 542.768 1231.28 550.767C1227.25 558.766 1220.27 564.804 1211.88 567.559L1157.62 594.501C1156.07 595.27 1154.38 595.689 1152.66 595.729C1150.94 595.77 1149.23 595.431 1147.65 594.735C1146.06 594.04 1144.65 593.005 1143.49 591.701C1142.34 590.396 1141.47 588.852 1140.96 587.175L1122.76 528.231C1122.24 526.554 1122.08 524.782 1122.29 523.037C1122.5 521.291 1123.08 519.613 1123.99 518.118V518.118Z" fill="#6C63FF"/>
<path d="M1127.3 1352.31H1101.64L1089.43 1251.21L1127.31 1251.21L1127.3 1352.31Z" fill="#FFB6B6"/>
<path d="M1133.85 1377.72L1051.09 1377.72V1376.65C1051.09 1367.92 1054.48 1359.55 1060.53 1353.39C1066.57 1347.22 1074.76 1343.75 1083.3 1343.75H1083.3L1133.85 1343.75L1133.85 1377.72Z" fill="#6C63FF"/>
<path d="M1395.26 1352.31H1369.6L1357.39 1251.21L1395.27 1251.21L1395.26 1352.31Z" fill="#FFB6B6"/>
<path d="M1401.81 1377.72L1319.05 1377.72V1376.65C1319.05 1367.92 1322.45 1359.55 1328.49 1353.39C1334.53 1347.22 1342.72 1343.75 1351.26 1343.75H1351.27L1401.81 1343.75L1401.81 1377.72Z" fill="#6C63FF"/>
<path d="M1137.32 736.469L1248.54 703.646C1289.05 732.993 1317.03 791.817 1307.97 867.927C1293.37 990.579 1377.89 1148.28 1414.34 1308.07L1351.31 1310.09L1213.29 972.764L1132.37 1317.12L1076.06 1318.92L1113.72 844.786L1137.32 736.469Z" fill="#2F2E41"/>
<path d="M1186.85 438.192C1218.62 438.192 1244.38 411.886 1244.38 379.436C1244.38 346.986 1218.62 320.68 1186.85 320.68C1155.07 320.68 1129.31 346.986 1129.31 379.436C1129.31 411.886 1155.07 438.192 1186.85 438.192Z" fill="#FFB6B6"/>
<path d="M1128.31 640.703C1115.59 617.906 1109.31 590.22 1120.37 566.543C1123.16 560.581 1130.76 554.946 1134.74 549.736L1179.19 482.049L1229.38 473.803C1272.82 511.009 1235.71 638.122 1271.3 721.503L1122.67 802.746C1133.29 761.309 1147.63 675.347 1128.31 640.703Z" fill="#6C63FF"/>
<path d="M1128.95 355.909C1128.95 355.909 1132.84 348.539 1156.16 358.047C1164.32 361.374 1168.15 360.609 1168.68 367.85C1170.57 395.1 1180.33 421.166 1196.73 442.752L1196.9 442.986L1208.56 432.121L1223.55 444.345L1286.85 445.703C1286.85 445.703 1296.84 395.45 1263.53 338.407C1230.22 281.363 1161.93 312.601 1161.93 312.601C1115.29 315.318 1128.95 355.909 1128.95 355.909Z" fill="#2F2E41"/>
<path d="M982.072 280.807L575.731 223.795C573.852 223.521 571.937 223.688 570.131 224.283C568.412 224.862 566.842 225.829 565.54 227.114C564.193 228.442 563.134 230.044 562.431 231.817C561.662 233.773 561.273 235.863 561.286 237.97V684.679C561.28 686.815 561.669 688.933 562.431 690.922C563.14 692.772 564.195 694.462 565.538 695.899C566.833 697.284 568.396 698.376 570.129 699.106C571.902 699.847 573.816 700.174 575.729 700.064L982.072 677.209C983.444 677.117 984.772 676.676 985.934 675.926C987.165 675.133 988.232 674.101 989.074 672.888C990.004 671.562 990.718 670.092 991.189 668.533C991.705 666.84 991.967 665.077 991.965 663.304V295.529C991.964 293.734 991.702 291.949 991.189 290.233C990.712 288.622 989.999 287.094 989.074 285.701C988.231 284.416 987.167 283.297 985.934 282.397C984.788 281.563 983.464 281.018 982.072 280.807Z" fill="#6C63FF"/>
<path opacity="0.2" d="M982.072 280.807L575.731 223.795C573.852 223.521 571.937 223.688 570.131 224.283C568.412 224.862 566.842 225.829 565.54 227.114C564.193 228.442 563.134 230.044 562.431 231.817C561.662 233.773 561.273 235.863 561.286 237.97V684.679C561.28 686.815 561.669 688.933 562.431 690.922C563.14 692.772 564.195 694.462 565.538 695.899C566.833 697.284 568.396 698.376 570.129 699.106C571.902 699.847 573.816 700.174 575.729 700.064L982.072 677.209C983.444 677.117 984.772 676.676 985.934 675.926C987.165 675.133 988.232 674.101 989.074 672.888C990.004 671.562 990.718 670.092 991.189 668.533C991.705 666.84 991.967 665.077 991.965 663.304V295.529C991.964 293.734 991.702 291.949 991.189 290.233C990.712 288.622 989.999 287.094 989.074 285.701C988.231 284.416 987.167 283.297 985.934 282.397C984.788 281.563 983.464 281.018 982.072 280.807Z" fill="black"/>
<path d="M998.819 280.807L592.479 223.795C590.6 223.521 588.685 223.688 586.879 224.283C585.159 224.862 583.59 225.829 582.288 227.114C580.941 228.442 579.881 230.044 579.179 231.817C578.41 233.773 578.021 235.863 578.034 237.97V684.679C578.028 686.815 578.416 688.933 579.179 690.922C579.888 692.772 580.943 694.462 582.286 695.899C583.58 697.284 585.144 698.376 586.876 699.106C588.65 699.847 590.563 700.174 592.477 700.064L998.819 677.209C1000.19 677.117 1001.52 676.676 1002.68 675.926C1003.91 675.133 1004.98 674.101 1005.82 672.888C1006.75 671.562 1007.47 670.092 1007.94 668.533C1008.45 666.84 1008.71 665.077 1008.71 663.304V295.529C1008.71 293.734 1008.45 291.949 1007.94 290.233C1007.46 288.622 1006.75 287.094 1005.82 285.701C1004.98 284.416 1003.91 283.297 1002.68 282.397C1001.54 281.563 1000.21 281.018 998.819 280.807Z" fill="#6C63FF"/>
<path d="M997.075 637.936C998.181 638.931 999.209 640.013 1000.15 641.172L1131.52 627.458L1144.7 597.587L1191.44 612.007L1173.14 667.204C1171.66 671.663 1168.81 675.512 1165.01 678.173C1161.2 680.835 1156.66 682.164 1152.05 681.963L1001.95 675.395C998.788 680.208 994.265 683.923 988.984 686.047C983.702 688.171 977.913 688.602 972.385 687.283C966.858 685.965 961.855 682.959 958.041 678.665C954.227 674.372 951.784 668.994 951.036 663.248C950.288 657.502 951.271 651.659 953.853 646.497C956.436 641.335 960.496 637.098 965.494 634.35C970.492 631.603 976.191 630.474 981.832 631.115C987.474 631.755 992.79 634.134 997.075 637.936V637.936Z" fill="#FFB6B6"/>
<path d="M1128.93 621.056C1128.23 619.453 1127.86 617.713 1127.88 615.955C1127.89 614.196 1128.27 612.461 1129 610.867L1154.38 555.189C1156.89 546.562 1162.64 539.302 1170.38 535C1178.12 530.698 1187.21 529.705 1195.66 532.24C1204.12 534.775 1211.24 540.63 1215.47 548.522C1219.71 556.413 1220.7 565.697 1218.24 574.337L1209.74 635.34C1209.5 637.081 1208.89 638.748 1207.96 640.228C1207.03 641.707 1205.8 642.965 1204.35 643.914C1202.9 644.864 1201.26 645.483 1199.56 645.73C1197.85 645.977 1196.12 645.846 1194.47 645.346L1136.45 627.761C1134.8 627.262 1133.27 626.404 1131.98 625.247C1130.68 624.09 1129.64 622.66 1128.93 621.056V621.056Z" fill="#6C63FF"/>
<path d="M1746.91 1380H949.298C948.743 1380 948.21 1379.77 947.818 1379.37C947.425 1378.97 947.204 1378.43 947.204 1377.86C947.204 1377.29 947.425 1376.75 947.818 1376.35C948.21 1375.95 948.743 1375.72 949.298 1375.72H1746.91C1747.46 1375.72 1747.99 1375.95 1748.39 1376.35C1748.78 1376.75 1749 1377.29 1749 1377.86C1749 1378.43 1748.78 1378.97 1748.39 1379.37C1747.99 1379.77 1747.46 1380 1746.91 1380Z" fill="black"/>
<path d="M700.375 526H691.328V494.453H656.922V526H647.922V457.75H656.922V487.094H691.328V457.75H700.375V526ZM754.938 494.453H725.359V518.641H759.719V526H716.359V457.75H759.25V465.156H725.359V487.094H754.938V494.453ZM779.969 518.641H812.312V526H770.922V457.75H779.969V518.641ZM831.625 518.641H863.969V526H822.578V457.75H831.625V518.641ZM923.641 494.078C923.641 500.766 922.516 506.609 920.266 511.609C918.016 516.578 914.828 520.375 910.703 523C906.578 525.625 901.766 526.938 896.266 526.938C890.891 526.938 886.125 525.625 881.969 523C877.812 520.344 874.578 516.578 872.266 511.703C869.984 506.797 868.812 501.125 868.75 494.688V489.766C868.75 483.203 869.891 477.406 872.172 472.375C874.453 467.344 877.672 463.5 881.828 460.844C886.016 458.156 890.797 456.812 896.172 456.812C901.641 456.812 906.453 458.141 910.609 460.797C914.797 463.422 918.016 467.25 920.266 472.281C922.516 477.281 923.641 483.109 923.641 489.766V494.078ZM914.688 489.672C914.688 481.578 913.062 475.375 909.812 471.062C906.562 466.719 902.016 464.547 896.172 464.547C890.484 464.547 886 466.719 882.719 471.062C879.469 475.375 877.797 481.375 877.703 489.062V494.078C877.703 501.922 879.344 508.094 882.625 512.594C885.938 517.062 890.484 519.297 896.266 519.297C902.078 519.297 906.578 517.188 909.766 512.969C912.953 508.719 914.594 502.641 914.688 494.734V489.672ZM945.484 506.734H937.656L937.047 457.75H946.141L945.484 506.734ZM936.719 521.641C936.719 520.234 937.141 519.062 937.984 518.125C938.859 517.156 940.141 516.672 941.828 516.672C943.516 516.672 944.797 517.156 945.672 518.125C946.547 519.062 946.984 520.234 946.984 521.641C946.984 523.047 946.547 524.219 945.672 525.156C944.797 526.062 943.516 526.516 941.828 526.516C940.141 526.516 938.859 526.062 937.984 525.156C937.141 524.219 936.719 523.047 936.719 521.641Z" fill="#FFB6B6"/>
</svg>
